  0
SECTION
  2
HEADER
  9
$ACADVER
  1
AC1009
  9
$DWGCODEPAGE
  3
ansi_1252
  9
$INSBASE
 10
0.0
 20
0.0
 30
0.0
  9
$EXTMIN
 10
-538.8418030281133
 20
-227.7067753307645
 30
0.0
  9
$EXTMAX
 10
-357.7625965637874
 20
-132.7373362029879
 30
0.0
  9
$LIMMIN
 10
0.0
 20
0.0
  9
$LIMMAX
 10
12.0
 20
9.0
  9
$ORTHOMODE
 70
     0
  9
$REGENMODE
 70
     1
  9
$FILLMODE
 70
     1
  9
$QTEXTMODE
 70
     0
  9
$MIRRTEXT
 70
     1
  9
$DRAGMODE
 70
     2
  9
$LTSCALE
 40
1.0
  9
$OSMODE
 70
    37
  9
$ATTMODE
 70
     1
  9
$TEXTSIZE
 40
0.2
  9
$TRACEWID
 40
0.05
  9
$TEXTSTYLE
  7
STANDARD
  9
$CLAYER
  8
0
  9
$CELTYPE
  6
BYLAYER
  9
$CECOLOR
 62
   256
  9
$DIMSCALE
 40
1.0
  9
$DIMASZ
 40
0.18
  9
$DIMEXO
 40
0.0625
  9
$DIMDLI
 40
0.38
  9
$DIMRND
 40
0.0
  9
$DIMDLE
 40
0.0
  9
$DIMEXE
 40
0.18
  9
$DIMTP
 40
0.0
  9
$DIMTM
 40
0.0
  9
$DIMTXT
 40
0.18
  9
$DIMCEN
 40
0.09
  9
$DIMTSZ
 40
0.0
  9
$DIMTOL
 70
     0
  9
$DIMLIM
 70
     0
  9
$DIMTIH
 70
     1
  9
$DIMTOH
 70
     1
  9
$DIMSE1
 70
     0
  9
$DIMSE2
 70
     0
  9
$DIMTAD
 70
     0
  9
$DIMZIN
 70
     0
  9
$DIMBLK
  1

  9
$DIMASO
 70
     1
  9
$DIMSHO
 70
     1
  9
$DIMPOST
  1

  9
$DIMAPOST
  1

  9
$DIMALT
 70
     0
  9
$DIMALTD
 70
     2
  9
$DIMALTF
 40
25.4
  9
$DIMLFAC
 40
1.0
  9
$DIMTOFL
 70
     0
  9
$DIMTVP
 40
0.0
  9
$DIMTIX
 70
     0
  9
$DIMSOXD
 70
     0
  9
$DIMSAH
 70
     0
  9
$DIMBLK1
  1

  9
$DIMBLK2
  1

  9
$DIMSTYLE
  2
STANDARD
  9
$DIMCLRD
 70
     0
  9
$DIMCLRE
 70
     0
  9
$DIMCLRT
 70
     0
  9
$DIMTFAC
 40
1.0
  9
$DIMGAP
 40
0.09
  9
$LUNITS
 70
     2
  9
$LUPREC
 70
     4
  9
$SKETCHINC
 40
0.1
  9
$FILLETRAD
 40
0.5
  9
$AUNITS
 70
     0
  9
$AUPREC
 70
     0
  9
$MENU
  1
.
  9
$ELEVATION
 40
0.0
  9
$PELEVATION
 40
0.0
  9
$THICKNESS
 40
0.0
  9
$LIMCHECK
 70
     0
  9
$CHAMFERA
 40
0.0
  9
$CHAMFERB
 40
0.0
  9
$SKPOLY
 70
     0
  9
$TDCREATE
 40
2454910.5
  9
$TDUPDATE
 40
2458930.468207257
  9
$TDINDWG
 40
0.0000000116
  9
$TDUSRTIMER
 40
0.0000000116
  9
$USRTIMER
 70
     1
  9
$ANGBASE
 50
0.0
  9
$ANGDIR
 70
     0
  9
$PDMODE
 70
     0
  9
$PDSIZE
 40
0.0
  9
$PLINEWID
 40
0.0
  9
$COORDS
 70
     1
  9
$SPLFRAME
 70
     0
  9
$SPLINETYPE
 70
     6
  9
$SPLINESEGS
 70
     8
  9
$ATTDIA
 70
     0
  9
$ATTREQ
 70
     1
  9
$HANDLING
 70
     1
  9
$HANDSEED
  5
300
  9
$SURFTAB1
 70
     6
  9
$SURFTAB2
 70
     6
  9
$SURFTYPE
 70
     6
  9
$SURFU
 70
     6
  9
$SURFV
 70
     6
  9
$UCSNAME
  2

  9
$UCSORG
 10
0.0
 20
0.0
 30
0.0
  9
$UCSXDIR
 10
1.0
 20
0.0
 30
0.0
  9
$UCSYDIR
 10
0.0
 20
1.0
 30
0.0
  9
$PUCSNAME
  2

  9
$PUCSORG
 10
0.0
 20
0.0
 30
0.0
  9
$PUCSXDIR
 10
1.0
 20
0.0
 30
0.0
  9
$PUCSYDIR
 10
0.0
 20
1.0
 30
0.0
  9
$USERI1
 70
     0
  9
$USERI2
 70
     0
  9
$USERI3
 70
     0
  9
$USERI4
 70
     0
  9
$USERI5
 70
     0
  9
$USERR1
 40
0.0
  9
$USERR2
 40
0.0
  9
$USERR3
 40
0.0
  9
$USERR4
 40
0.0
  9
$USERR5
 40
0.0
  9
$WORLDVIEW
 70
     1
  9
$SHADEDGE
 70
     3
  9
$SHADEDIF
 70
    70
  9
$TILEMODE
 70
     1
  9
$MAXACTVP
 70
    64
  9
$PLIMCHECK
 70
     0
  9
$PEXTMIN
 10
1.000000000000000E+20
 20
1.000000000000000E+20
 30
1.000000000000000E+20
  9
$PEXTMAX
 10
-1.000000000000000E+20
 20
-1.000000000000000E+20
 30
-1.000000000000000E+20
  9
$PLIMMIN
 10
0.0
 20
0.0
  9
$PLIMMAX
 10
12.0
 20
9.0
  9
$UNITMODE
 70
     0
  9
$VISRETAIN
 70
     1
  9
$PLINEGEN
 70
     0
  9
$PSLTSCALE
 70
     1
  0
ENDSEC
  0
SECTION
  2
TABLES
  0
TABLE
  2
VPORT
 70
     1
  0
VPORT
  2
*ACTIVE
 70
     0
 10
0.0
 20
0.0
 11
1.0
 21
1.0
 12
10.42990654205607
 22
4.5
 13
0.0
 23
0.0
 14
0.5
 24
0.5
 15
0.5
 25
0.5
 16
0.0
 26
0.0
 36
1.0
 17
0.0
 27
0.0
 37
0.0
 40
9.0
 41
1.972972972850329
 42
50.0
 43
0.0
 44
0.0
 50
0.0
 51
0.0
 71
     0
 72
   100
 73
     1
 74
     3
 75
     0
 76
     0
 77
     0
 78
     0
  0
ENDTAB
  0
TABLE
  2
LTYPE
 70
     2
  0
LTYPE
  2
CONTINUOUS
 70
     0
  3
Solid line
 72
    65
 73
     0
 40
0.0
  0
LTYPE
  2
CONTINUOUS2
 70
     0
  3
Solid Line
 72
    65
 73
     0
 40
0.0
  0
ENDTAB
  0
TABLE
  2
LAYER
 70
     3
  0
LAYER
  2
0
 70
     0
 62
     7
  6
CONTINUOUS
  0
LAYER
  2
ANGLE
 70
     0
 62
     1
  6
CONTINUOUS
  0
LAYER
  2
LAYER0000
 70
     0
 62
     7
  6
CONTINUOUS
  0
ENDTAB
  0
TABLE
  2
STYLE
 70
     1
  0
STYLE
  2
STANDARD
 70
     0
 40
0.0
 41
1.0
 50
0.0
 71
     0
 42
0.2
  3
txt
  4

  0
ENDTAB
  0
TABLE
  2
VIEW
 70
     0
  0
ENDTAB
  0
TABLE
  2
UCS
 70
     0
  0
ENDTAB
  0
TABLE
  2
APPID
 70
     1
  0
APPID
  2
ACAD
 70
     0
  0
ENDTAB
  0
TABLE
  2
DIMSTYLE
 70
     1
  0
DIMSTYLE
  2
STANDARD
 70
     0
  3

  4

  5

  6

  7

 40
1.0
 41
0.18
 42
0.0625
 43
0.38
 44
0.18
 45
0.0
 46
0.0
 47
0.0
 48
0.0
140
0.18
141
0.09
142
0.0
143
25.4
144
1.0
145
0.0
146
1.0
147
0.09
 71
     0
 72
     0
 73
     1
 74
     1
 75
     0
 76
     0
 77
     0
 78
     0
170
     0
171
     2
172
     0
173
     0
174
     0
175
     0
176
     0
177
     0
178
     0
  0
ENDTAB
  0
ENDSEC
  0
SECTION
  2
BLOCKS
  0
BLOCK
  8
0
  2
$MODEL_SPACE
 70
     0
 10
0.0
 20
0.0
 30
0.0
  3
$MODEL_SPACE
  1

  0
ENDBLK
  5
21
  8
0
  0
BLOCK
 67
     1
  8
0
  2
$PAPER_SPACE
 70
     0
 10
0.0
 20
0.0
 30
0.0
  3
$PAPER_SPACE
  1

  0
ENDBLK
  5
1D
 67
     1
  8
0
  0
ENDSEC
  0
SECTION
  2
ENTITIES
  0
POLYLINE
  5
70
  8
ANGLE
 66
     1
 10
0.0
 20
0.0
 30
0.0
  0
VERTEX
  5
9D
  8
ANGLE
 10
-448.1930178134226
 20
-199.2871556488407
 30
0.0
  0
VERTEX
  5
9E
  8
ANGLE
 10
-448.1930178134226
 20
-152.2871556488407
 30
0.0
  0
SEQEND
  5
2DB
  8
ANGLE
  0
POLYLINE
  5
71
  8
ANGLE
 66
     1
 10
0.0
 20
0.0
 30
0.0
  0
VERTEX
  5
9F
  8
ANGLE
 10
-512.7032991029229
 20
-227.7067753307645
 30
0.0
  0
VERTEX
  5
A0
  8
ANGLE
 10
-512.7032991029229
 20
-152.3692777562836
 30
0.0
  0
SEQEND
  5
2DC
  8
ANGLE
  0
POLYLINE
  5
72
  8
ANGLE
 66
     1
 10
0.0
 20
0.0
 30
0.0
  0
VERTEX
  5
A1
  8
ANGLE
 10
-383.2757009922799
 20
-227.7067653307645
 30
0.0
  0
VERTEX
  5
A2
  8
ANGLE
 10
-383.2757009922799
 20
-152.3692677562836
 30
0.0
  0
SEQEND
  5
2DD
  8
ANGLE
  0
POLYLINE
  5
73
  8
ANGLE
 66
     1
 10
0.0
 20
0.0
 30
0.0
  0
VERTEX
  5
A3
  8
ANGLE
 10
-468.5011406473358
 20
-134.2873362029879
 30
0.0
 42
-0.4238676972146167
  0
VERTEX
  5
A4
  8
ANGLE
 10
-467.0011406473358
 20
-132.7373362029879
 30
0.0
 42
-0.4139114804918755
  0
VERTEX
  5
A5
  8
ANGLE
 10
-465.5011406473358
 20
-134.2373362029879
 30
0.0
 42
-0.1946370063820205
  0
VERTEX
  5
A6
  8
ANGLE
 10
-465.9511406473358
 20
-135.2873362029879
 30
0.0
  0
VERTEX
  5
A7
  8
ANGLE
 10
-468.4511406473358
 20
-137.7873362029879
 30
0.0
  0
VERTEX
  5
A8
  8
ANGLE
 10
-465.2511406473358
 20
-137.7873362029879
 30
0.0
  0
SEQEND
  5
2DE
  8
ANGLE
  0
POLYLINE
  5
74
  8
ANGLE
 66
     1
 10
0.0
 20
0.0
 30
0.0
 70
     1
  0
VERTEX
  5
A9
  8
ANGLE
 10
-461.7511406473357
 20
-137.837336202988
 30
0.0
  0
VERTEX
  5
AA
  8
ANGLE
 10
-461.7011406473358
 20
-137.837336202988
 30
0.0
 42
0.4133333333333333
  0
VERTEX
  5
AB
  8
ANGLE
 10
-459.2011406473358
 20
-135.337336202988
 30
0.0
  0
VERTEX
  5
AC
  8
ANGLE
 10
-459.2011406473358
 20
-135.2873362029879
 30
0.0
 42
0.4133333333333333
  0
VERTEX
  5
AD
  8
ANGLE
 10
-461.7011406473358
 20
-132.7873362029879
 30
0.0
  0
VERTEX
  5
AE
  8
ANGLE
 10
-461.7511406473357
 20
-132.7873362029879
 30
0.0
 42
0.4133333333333333
  0
VERTEX
  5
AF
  8
ANGLE
 10
-464.2511406473357
 20
-135.2873362029879
 30
0.0
  0
VERTEX
  5
B0
  8
ANGLE
 10
-464.2511406473357
 20
-135.337336202988
 30
0.0
 42
0.4133333333333333
  0
SEQEND
  5
2DF
  8
ANGLE
  0
POLYLINE
  5
75
  8
ANGLE
 66
     1
 10
0.0
 20
0.0
 30
0.0
  0
VERTEX
  5
B1
  8
ANGLE
 10
-450.2011406473358
 20
-137.7873362029879
 30
0.0
  0
VERTEX
  5
B2
  8
ANGLE
 10
-450.2011406473358
 20
-135.937336202988
 30
0.0
  0
VERTEX
  5
B3
  8
ANGLE
 10
-450.2109501331486
 20
-135.7430722401808
 30
0.0
  0
VERTEX
  5
B4
  8
ANGLE
 10
-450.2397418943704
 20
-135.5544199322306
 30
0.0
  0
VERTEX
  5
B5
  8
ANGLE
 10
-450.2865608866761
 20
-135.3723343234626
 30
0.0
  0
VERTEX
  5
B6
  8
ANGLE
 10
-450.3504520657403
 20
-135.1977704582017
 30
0.0
  0
VERTEX
  5
B7
  8
ANGLE
 10
-450.4304603872381
 20
-135.0316833807732
 30
0.0
  0
VERTEX
  5
B8
  8
ANGLE
 10
-450.5256308068443
 20
-134.8750281355022
 30
0.0
  0
VERTEX
  5
B9
  8
ANGLE
 10
-450.6350082802337
 20
-134.728759766714
 30
0.0
  0
VERTEX
  5
BA
  8
ANGLE
 10
-450.7576377630813
 20
-134.5938333187335
 30
0.0
  0
VERTEX
  5
BB
  8
ANGLE
 10
-450.8925642110618
 20
-134.471203835886
 30
0.0
  0
VERTEX
  5
BC
  8
ANGLE
 10
-451.0388325798501
 20
-134.3618263624965
 30
0.0
  0
VERTEX
  5
BD
  8
ANGLE
 10
-451.195487825121
 20
-134.2666559428903
 30
0.0
  0
VERTEX
  5
BE
  8
ANGLE
 10
-451.3615749025495
 20
-134.1866476213925
 30
0.0
  0
VERTEX
  5
BF
  8
ANGLE
 10
-451.5361387678104
 20
-134.1227564423282
 30
0.0
  0
VERTEX
  5
C0
  8
ANGLE
 10
-451.7182243765784
 20
-134.0759374500226
 30
0.0
  0
VERTEX
  5
C1
  8
ANGLE
 10
-451.9068766845286
 20
-134.0471456888008
 30
0.0
  0
VERTEX
  5
C2
  8
ANGLE
 10
-452.1011406473357
 20
-134.0373362029879
 30
0.0
  0
VERTEX
  5
C3
  8
ANGLE
 10
-452.2954046101429
 20
-134.0471456888008
 30
0.0
  0
VERTEX
  5
C4
  8
ANGLE
 10
-452.4840569180931
 20
-134.0759374500226
 30
0.0
  0
VERTEX
  5
C5
  8
ANGLE
 10
-452.6661425268611
 20
-134.1227564423282
 30
0.0
  0
VERTEX
  5
C6
  8
ANGLE
 10
-452.840706392122
 20
-134.1866476213925
 30
0.0
  0
VERTEX
  5
C7
  8
ANGLE
 10
-453.0067934695505
 20
-134.2666559428903
 30
0.0
  0
VERTEX
  5
C8
  8
ANGLE
 10
-453.1634487148214
 20
-134.3618263624965
 30
0.0
  0
VERTEX
  5
C9
  8
ANGLE
 10
-453.3097170836097
 20
-134.471203835886
 30
0.0
  0
VERTEX
  5
CA
  8
ANGLE
 10
-453.4446435315902
 20
-134.5938333187335
 30
0.0
  0
VERTEX
  5
CB
  8
ANGLE
 10
-453.5672730144378
 20
-134.728759766714
 30
0.0
  0
VERTEX
  5
CC
  8
ANGLE
 10
-453.6766504878272
 20
-134.8750281355022
 30
0.0
  0
VERTEX
  5
CD
  8
ANGLE
 10
-453.7718209074334
 20
-135.0316833807732
 30
0.0
  0
VERTEX
  5
CE
  8
ANGLE
 10
-453.8518292289312
 20
-135.1977704582017
 30
0.0
  0
VERTEX
  5
CF
  8
ANGLE
 10
-453.9157204079954
 20
-135.3723343234626
 30
0.0
  0
VERTEX
  5
D0
  8
ANGLE
 10
-453.9625394003011
 20
-135.5544199322306
 30
0.0
  0
VERTEX
  5
D1
  8
ANGLE
 10
-453.9913311615229
 20
-135.7430722401808
 30
0.0
  0
VERTEX
  5
D2
  8
ANGLE
 10
-454.0011406473357
 20
-135.937336202988
 30
0.0
  0
VERTEX
  5
D3
  8
ANGLE
 10
-453.9913311615229
 20
-136.1316001657951
 30
0.0
  0
VERTEX
  5
D4
  8
ANGLE
 10
-453.9625394003011
 20
-136.3202524737453
 30
0.0
  0
VERTEX
  5
D5
  8
ANGLE
 10
-453.9157204079954
 20
-136.5023380825133
 30
0.0
  0
VERTEX
  5
D6
  8
ANGLE
 10
-453.8518292289312
 20
-136.6769019477742
 30
0.0
  0
VERTEX
  5
D7
  8
ANGLE
 10
-453.7718209074334
 20
-136.8429890252027
 30
0.0
  0
VERTEX
  5
D8
  8
ANGLE
 10
-453.6766504878272
 20
-136.9996442704737
 30
0.0
  0
VERTEX
  5
D9
  8
ANGLE
 10
-453.5672730144378
 20
-137.1459126392619
 30
0.0
  0
VERTEX
  5
DA
  8
ANGLE
 10
-453.4446435315902
 20
-137.2808390872424
 30
0.0
  0
VERTEX
  5
DB
  8
ANGLE
 10
-453.3097170836097
 20
-137.4034685700899
 30
0.0
  0
VERTEX
  5
DC
  8
ANGLE
 10
-453.1634487148214
 20
-137.5128460434794
 30
0.0
  0
VERTEX
  5
DD
  8
ANGLE
 10
-453.0067934695505
 20
-137.6080164630856
 30
0.0
  0
VERTEX
  5
DE
  8
ANGLE
 10
-452.840706392122
 20
-137.6880247845834
 30
0.0
  0
VERTEX
  5
DF
  8
ANGLE
 10
-452.6661425268611
 20
-137.7519159636477
 30
0.0
  0
VERTEX
  5
E0
  8
ANGLE
 10
-452.4840569180931
 20
-137.7987349559533
 30
0.0
  0
VERTEX
  5
E1
  8
ANGLE
 10
-452.2954046101429
 20
-137.8275267171751
 30
0.0
  0
VERTEX
  5
E2
  8
ANGLE
 10
-452.1011406473357
 20
-137.837336202988
 30
0.0
  0
VERTEX
  5
E3
  8
ANGLE
 10
-451.9068766845286
 20
-137.8275267171751
 30
0.0
  0
VERTEX
  5
E4
  8
ANGLE
 10
-451.7182243765784
 20
-137.7987349559533
 30
0.0
  0
VERTEX
  5
E5
  8
ANGLE
 10
-451.5361387678104
 20
-137.7519159636477
 30
0.0
  0
VERTEX
  5
E6
  8
ANGLE
 10
-451.3615749025495
 20
-137.6880247845834
 30
0.0
  0
VERTEX
  5
E7
  8
ANGLE
 10
-451.195487825121
 20
-137.6080164630856
 30
0.0
  0
VERTEX
  5
E8
  8
ANGLE
 10
-451.0388325798501
 20
-137.5128460434794
 30
0.0
  0
VERTEX
  5
E9
  8
ANGLE
 10
-450.8925642110618
 20
-137.4034685700899
 30
0.0
  0
VERTEX
  5
EA
  8
ANGLE
 10
-450.7576377630813
 20
-137.2808390872424
 30
0.0
  0
VERTEX
  5
EB
  8
ANGLE
 10
-450.6350082802337
 20
-137.1459126392619
 30
0.0
  0
VERTEX
  5
EC
  8
ANGLE
 10
-450.5256308068443
 20
-136.9996442704737
 30
0.0
  0
VERTEX
  5
ED
  8
ANGLE
 10
-450.4304603872381
 20
-136.8429890252027
 30
0.0
  0
VERTEX
  5
EE
  8
ANGLE
 10
-450.3504520657403
 20
-136.6769019477742
 30
0.0
  0
VERTEX
  5
EF
  8
ANGLE
 10
-450.2865608866761
 20
-136.5023380825133
 30
0.0
  0
VERTEX
  5
F0
  8
ANGLE
 10
-450.2397418943704
 20
-136.3202524737453
 30
0.0
  0
VERTEX
  5
F1
  8
ANGLE
 10
-450.2109501331486
 20
-136.1316001657951
 30
0.0
  0
VERTEX
  5
F2
  8
ANGLE
 10
-450.2011406473358
 20
-135.937336202988
 30
0.0
  0
VERTEX
  5
F3
  8
ANGLE
 10
-450.2011406473358
 20
-132.7873362029879
 30
0.0
  0
SEQEND
  5
2E0
  8
ANGLE
  0
POLYLINE
  5
76
  8
ANGLE
 66
     1
 10
0.0
 20
0.0
 30
0.0
  0
VERTEX
  5
F4
  8
ANGLE
 10
-449.1011406473357
 20
-135.937336202988
 30
0.0
  0
VERTEX
  5
F5
  8
ANGLE
 10
-445.4011406473358
 20
-135.937336202988
 30
0.0
 42
0.9023199709436645
  0
VERTEX
  5
F6
  8
ANGLE
 10
-449.144473980669
 20
-135.4706695363213
 30
0.0
 42
0.8623467340067498
  0
VERTEX
  5
F7
  8
ANGLE
 10
-445.6511406473358
 20
-136.837336202988
 30
0.0
  0
SEQEND
  5
2E1
  8
ANGLE
  0
POLYLINE
  5
77
  8
ANGLE
 66
     1
 10
0.0
 20
0.0
 30
0.0
 70
     1
  0
VERTEX
  5
F8
  8
ANGLE
 10
-442.5078073140024
 20
-137.837336202988
 30
0.0
  0
VERTEX
  5
F9
  8
ANGLE
 10
-442.3135433511953
 20
-137.8275267171751
 30
0.0
  0
VERTEX
  5
FA
  8
ANGLE
 10
-442.1248910432451
 20
-137.7987349559533
 30
0.0
  0
VERTEX
  5
FB
  8
ANGLE
 10
-441.942805434477
 20
-137.7519159636477
 30
0.0
  0
VERTEX
  5
FC
  8
ANGLE
 10
-441.7682415692162
 20
-137.6880247845834
 30
0.0
  0
VERTEX
  5
FD
  8
ANGLE
 10
-441.6021544917877
 20
-137.6080164630856
 30
0.0
  0
VERTEX
  5
FE
  8
ANGLE
 10
-441.4454992465168
 20
-137.5128460434794
 30
0.0
  0
VERTEX
  5
FF
  8
ANGLE
 10
-441.2992308777284
 20
-137.4034685700899
 30
0.0
  0
VERTEX
  5
100
  8
ANGLE
 10
-441.164304429748
 20
-137.2808390872424
 30
0.0
  0
VERTEX
  5
101
  8
ANGLE
 10
-441.0416749469005
 20
-137.1459126392619
 30
0.0
  0
VERTEX
  5
102
  8
ANGLE
 10
-440.932297473511
 20
-136.9996442704737
 30
0.0
  0
VERTEX
  5
103
  8
ANGLE
 10
-440.8371270539049
 20
-136.8429890252027
 30
0.0
  0
VERTEX
  5
104
  8
ANGLE
 10
-440.757118732407
 20
-136.6769019477742
 30
0.0
  0
VERTEX
  5
105
  8
ANGLE
 10
-440.6932275533428
 20
-136.5023380825133
 30
0.0
  0
VERTEX
  5
106
  8
ANGLE
 10
-440.6464085610372
 20
-136.3202524737453
 30
0.0
  0
VERTEX
  5
107
  8
ANGLE
 10
-440.6176167998153
 20
-136.1316001657951
 30
0.0
  0
VERTEX
  5
108
  8
ANGLE
 10
-440.6078073140025
 20
-135.937336202988
 30
0.0
  0
VERTEX
  5
109
  8
ANGLE
 10
-440.6176167998153
 20
-135.7430722401808
 30
0.0
  0
VERTEX
  5
10A
  8
ANGLE
 10
-440.6464085610372
 20
-135.5544199322306
 30
0.0
  0
VERTEX
  5
10B
  8
ANGLE
 10
-440.6932275533428
 20
-135.3723343234626
 30
0.0
  0
VERTEX
  5
10C
  8
ANGLE
 10
-440.757118732407
 20
-135.1977704582017
 30
0.0
  0
VERTEX
  5
10D
  8
ANGLE
 10
-440.8371270539049
 20
-135.0316833807732
 30
0.0
  0
VERTEX
  5
10E
  8
ANGLE
 10
-440.932297473511
 20
-134.8750281355022
 30
0.0
  0
VERTEX
  5
10F
  8
ANGLE
 10
-441.0416749469005
 20
-134.728759766714
 30
0.0
  0
VERTEX
  5
110
  8
ANGLE
 10
-441.164304429748
 20
-134.5938333187335
 30
0.0
  0
VERTEX
  5
111
  8
ANGLE
 10
-441.2992308777284
 20
-134.471203835886
 30
0.0
  0
VERTEX
  5
112
  8
ANGLE
 10
-441.4454992465168
 20
-134.3618263624965
 30
0.0
  0
VERTEX
  5
113
  8
ANGLE
 10
-441.6021544917877
 20
-134.2666559428903
 30
0.0
  0
VERTEX
  5
114
  8
ANGLE
 10
-441.7682415692162
 20
-134.1866476213925
 30
0.0
  0
VERTEX
  5
115
  8
ANGLE
 10
-441.942805434477
 20
-134.1227564423282
 30
0.0
  0
VERTEX
  5
116
  8
ANGLE
 10
-442.1248910432451
 20
-134.0759374500226
 30
0.0
  0
VERTEX
  5
117
  8
ANGLE
 10
-442.3135433511953
 20
-134.0471456888008
 30
0.0
  0
VERTEX
  5
118
  8
ANGLE
 10
-442.5078073140024
 20
-134.0373362029879
 30
0.0
  0
VERTEX
  5
119
  8
ANGLE
 10
-442.7020712768095
 20
-134.0471456888008
 30
0.0
  0
VERTEX
  5
11A
  8
ANGLE
 10
-442.8907235847598
 20
-134.0759374500226
 30
0.0
  0
VERTEX
  5
11B
  8
ANGLE
 10
-443.0728091935279
 20
-134.1227564423282
 30
0.0
  0
VERTEX
  5
11C
  8
ANGLE
 10
-443.2473730587887
 20
-134.1866476213925
 30
0.0
  0
VERTEX
  5
11D
  8
ANGLE
 10
-443.4134601362172
 20
-134.2666559428903
 30
0.0
  0
VERTEX
  5
11E
  8
ANGLE
 10
-443.5701153814881
 20
-134.3618263624965
 30
0.0
  0
VERTEX
  5
11F
  8
ANGLE
 10
-443.7163837502765
 20
-134.471203835886
 30
0.0
  0
VERTEX
  5
120
  8
ANGLE
 10
-443.8513101982569
 20
-134.5938333187335
 30
0.0
  0
VERTEX
  5
121
  8
ANGLE
 10
-443.9739396811044
 20
-134.728759766714
 30
0.0
  0
VERTEX
  5
122
  8
ANGLE
 10
-444.0833171544938
 20
-134.8750281355022
 30
0.0
  0
VERTEX
  5
123
  8
ANGLE
 10
-444.1784875741
 20
-135.0316833807732
 30
0.0
  0
VERTEX
  5
124
  8
ANGLE
 10
-444.2584958955978
 20
-135.1977704582017
 30
0.0
  0
VERTEX
  5
125
  8
ANGLE
 10
-444.3223870746621
 20
-135.3723343234626
 30
0.0
  0
VERTEX
  5
126
  8
ANGLE
 10
-444.3692060669677
 20
-135.5544199322306
 30
0.0
  0
VERTEX
  5
127
  8
ANGLE
 10
-444.3979978281895
 20
-135.7430722401808
 30
0.0
  0
VERTEX
  5
128
  8
ANGLE
 10
-444.4078073140024
 20
-135.937336202988
 30
0.0
  0
VERTEX
  5
129
  8
ANGLE
 10
-444.3979978281895
 20
-136.1316001657951
 30
0.0
  0
VERTEX
  5
12A
  8
ANGLE
 10
-444.3692060669677
 20
-136.3202524737453
 30
0.0
  0
VERTEX
  5
12B
  8
ANGLE
 10
-444.3223870746621
 20
-136.5023380825133
 30
0.0
  0
VERTEX
  5
12C
  8
ANGLE
 10
-444.2584958955978
 20
-136.6769019477742
 30
0.0
  0
VERTEX
  5
12D
  8
ANGLE
 10
-444.1784875741
 20
-136.8429890252027
 30
0.0
  0
VERTEX
  5
12E
  8
ANGLE
 10
-444.0833171544938
 20
-136.9996442704737
 30
0.0
  0
VERTEX
  5
12F
  8
ANGLE
 10
-443.9739396811044
 20
-137.1459126392619
 30
0.0
  0
VERTEX
  5
130
  8
ANGLE
 10
-443.8513101982569
 20
-137.2808390872424
 30
0.0
  0
VERTEX
  5
131
  8
ANGLE
 10
-443.7163837502765
 20
-137.4034685700899
 30
0.0
  0
VERTEX
  5
132
  8
ANGLE
 10
-443.5701153814881
 20
-137.5128460434794
 30
0.0
  0
VERTEX
  5
133
  8
ANGLE
 10
-443.4134601362172
 20
-137.6080164630856
 30
0.0
  0
VERTEX
  5
134
  8
ANGLE
 10
-443.2473730587887
 20
-137.6880247845834
 30
0.0
  0
VERTEX
  5
135
  8
ANGLE
 10
-443.0728091935279
 20
-137.7519159636477
 30
0.0
  0
VERTEX
  5
136
  8
ANGLE
 10
-442.8907235847598
 20
-137.7987349559533
 30
0.0
  0
VERTEX
  5
137
  8
ANGLE
 10
-442.7020712768095
 20
-137.8275267171751
 30
0.0
  0
SEQEND
  5
2E2
  8
ANGLE
  0
POLYLINE
  5
78
  8
ANGLE
 66
     1
 10
0.0
 20
0.0
 30
0.0
  0
VERTEX
  5
138
  8
ANGLE
 10
-442.5078073140024
 20
-137.837336202988
 30
0.0
 42
0.4216306000241346
  0
VERTEX
  5
139
  8
ANGLE
 10
-440.6078073140025
 20
-135.8873362029879
 30
0.0
  0
VERTEX
  5
13A
  8
ANGLE
 10
-440.6078073140025
 20
-134.0373362029879
 30
0.0
  0
VERTEX
  5
13B
  8
ANGLE
 10
-440.6078073140025
 20
-137.187336202988
 30
0.0
 42
-0.7823487490295122
  0
VERTEX
  5
13C
  8
ANGLE
 10
-444.1578073140024
 20
-138.087336202988
 30
0.0
  0
SEQEND
  5
2E3
  8
ANGLE
  0
POLYLINE
  5
79
  8
ANGLE
 66
     1
 10
0.0
 20
0.0
 30
0.0
  0
VERTEX
  5
13D
  8
ANGLE
 10
-439.6078073140025
 20
-137.7873362029879
 30
0.0
  0
VERTEX
  5
13E
  8
ANGLE
 10
-439.6078073140025
 20
-134.087336202988
 30
0.0
  0
VERTEX
  5
13F
  8
ANGLE
 10
-439.6078073140025
 20
-135.4873362029879
 30
0.0
 42
-0.4160919540229884
  0
VERTEX
  5
140
  8
ANGLE
 10
-438.1578073140024
 20
-134.0373362029879
 30
0.0
  0
SEQEND
  5
2E4
  8
ANGLE
  0
POLYLINE
  5
7A
  8
ANGLE
 66
     1
 10
0.0
 20
0.0
 30
0.0
  0
VERTEX
  5
141
  8
ANGLE
 10
-437.0578073140024
 20
-135.937336202988
 30
0.0
  0
VERTEX
  5
142
  8
ANGLE
 10
-433.3578073140025
 20
-135.937336202988
 30
0.0
 42
0.9023199709436645
  0
VERTEX
  5
143
  8
ANGLE
 10
-437.1011406473357
 20
-135.4706695363213
 30
0.0
 42
0.8623467340067498
  0
VERTEX
  5
144
  8
ANGLE
 10
-433.6078073140025
 20
-136.837336202988
 30
0.0
  0
SEQEND
  5
2E5
  8
ANGLE
  0
POLYLINE
  5
7B
  8
ANGLE
 66
     1
 10
0.0
 20
0.0
 30
0.0
  0
VERTEX
  5
145
  8
ANGLE
 10
-432.2578073140024
 20
-135.937336202988
 30
0.0
  0
VERTEX
  5
146
  8
ANGLE
 10
-428.5578073140024
 20
-135.937336202988
 30
0.0
 42
0.9023199709436645
  0
VERTEX
  5
147
  8
ANGLE
 10
-432.3011406473357
 20
-135.4706695363213
 30
0.0
 42
0.8623467340067498
  0
VERTEX
  5
148
  8
ANGLE
 10
-428.8078073140024
 20
-136.837336202988
 30
0.0
  0
SEQEND
  5
2E6
  8
ANGLE
  0
POLYLINE
  5
7C
  8
ANGLE
 66
     1
 10
0.0
 20
0.0
 30
0.0
  0
VERTEX
  5
149
  8
ANGLE
 10
-531.6108516721376
 20
-139.2524400975611
 30
0.0
  0
VERTEX
  5
14A
  8
ANGLE
 10
-528.8108516721377
 20
-139.2524400975611
 30
0.0
  0
VERTEX
  5
14B
  8
ANGLE
 10
-531.0108516721376
 20
-144.2524400975611
 30
0.0
  0
SEQEND
  5
2E7
  8
ANGLE
  0
POLYLINE
  5
7D
  8
ANGLE
 66
     1
 10
0.0
 20
0.0
 30
0.0
  0
VERTEX
  5
14C
  8
ANGLE
 10
-527.5641850054709
 20
-140.4524400975611
 30
0.0
 42
-0.4548493327042687
  0
VERTEX
  5
14D
  8
ANGLE
 10
-526.4641850054709
 20
-139.1924400975611
 30
0.0
 42
-0.4114350750726344
  0
VERTEX
  5
14E
  8
ANGLE
 10
-525.364185005471
 20
-140.3024400975611
 30
0.0
  0
VERTEX
  5
14F
  8
ANGLE
 10
-525.364185005471
 20
-140.4524400975611
 30
0.0
 42
-0.4121212121212124
  0
VERTEX
  5
150
  8
ANGLE
 10
-526.4641850054709
 20
-141.5524400975611
 30
0.0
  0
VERTEX
  5
151
  8
ANGLE
 10
-526.7141850054709
 20
-141.5524400975611
 30
0.0
  0
VERTEX
  5
152
  8
ANGLE
 10
-526.4141850054709
 20
-141.5524400975611
 30
0.0
 42
-0.4142857142857143
  0
VERTEX
  5
153
  8
ANGLE
 10
-525.014185005471
 20
-142.9524400975611
 30
0.0
 42
-0.9462693881493045
  0
VERTEX
  5
154
  8
ANGLE
 10
-527.8141850054709
 20
-143.0024400975611
 30
0.0
  0
SEQEND
  5
2E8
  8
ANGLE
  0
POLYLINE
  5
7E
  8
ANGLE
 66
     1
 10
0.0
 20
0.0
 30
0.0
  0
VERTEX
  5
155
  8
ANGLE
 10
-516.014185005471
 20
-144.2524400975611
 30
0.0
  0
VERTEX
  5
156
  8
ANGLE
 10
-516.014185005471
 20
-142.4024400975611
 30
0.0
  0
VERTEX
  5
157
  8
ANGLE
 10
-516.0239944912838
 20
-142.208176134754
 30
0.0
  0
VERTEX
  5
158
  8
ANGLE
 10
-516.0527862525056
 20
-142.0195238268038
 30
0.0
  0
VERTEX
  5
159
  8
ANGLE
 10
-516.0996052448113
 20
-141.8374382180357
 30
0.0
  0
VERTEX
  5
15A
  8
ANGLE
 10
-516.1634964238756
 20
-141.6628743527748
 30
0.0
  0
VERTEX
  5
15B
  8
ANGLE
 10
-516.2435047453735
 20
-141.4967872753463
 30
0.0
  0
VERTEX
  5
15C
  8
ANGLE
 10
-516.3386751649797
 20
-141.3401320300754
 30
0.0
  0
VERTEX
  5
15D
  8
ANGLE
 10
-516.4480526383691
 20
-141.1938636612871
 30
0.0
  0
VERTEX
  5
15E
  8
ANGLE
 10
-516.5706821212166
 20
-141.0589372133066
 30
0.0
  0
VERTEX
  5
15F
  8
ANGLE
 10
-516.705608569197
 20
-140.9363077304591
 30
0.0
  0
VERTEX
  5
160
  8
ANGLE
 10
-516.8518769379854
 20
-140.8269302570696
 30
0.0
  0
VERTEX
  5
161
  8
ANGLE
 10
-517.0085321832563
 20
-140.7317598374635
 30
0.0
  0
VERTEX
  5
162
  8
ANGLE
 10
-517.1746192606847
 20
-140.6517515159657
 30
0.0
  0
VERTEX
  5
163
  8
ANGLE
 10
-517.3491831259455
 20
-140.5878603369013
 30
0.0
  0
VERTEX
  5
164
  8
ANGLE
 10
-517.5312687347136
 20
-140.5410413445957
 30
0.0
  0
VERTEX
  5
165
  8
ANGLE
 10
-517.7199210426638
 20
-140.5122495833739
 30
0.0
  0
VERTEX
  5
166
  8
ANGLE
 10
-517.9141850054709
 20
-140.5024400975611
 30
0.0
  0
VERTEX
  5
167
  8
ANGLE
 10
-518.108448968278
 20
-140.5122495833739
 30
0.0
  0
VERTEX
  5
168
  8
ANGLE
 10
-518.2971012762282
 20
-140.5410413445957
 30
0.0
  0
VERTEX
  5
169
  8
ANGLE
 10
-518.4791868849964
 20
-140.5878603369013
 30
0.0
  0
VERTEX
  5
16A
  8
ANGLE
 10
-518.6537507502571
 20
-140.6517515159657
 30
0.0
  0
VERTEX
  5
16B
  8
ANGLE
 10
-518.8198378276855
 20
-140.7317598374635
 30
0.0
  0
VERTEX
  5
16C
  8
ANGLE
 10
-518.9764930729565
 20
-140.8269302570696
 30
0.0
  0
VERTEX
  5
16D
  8
ANGLE
 10
-519.1227614417448
 20
-140.9363077304591
 30
0.0
  0
VERTEX
  5
16E
  8
ANGLE
 10
-519.2576878897253
 20
-141.0589372133066
 30
0.0
  0
VERTEX
  5
16F
  8
ANGLE
 10
-519.3803173725728
 20
-141.1938636612871
 30
0.0
  0
VERTEX
  5
170
  8
ANGLE
 10
-519.4896948459622
 20
-141.3401320300754
 30
0.0
  0
VERTEX
  5
171
  8
ANGLE
 10
-519.5848652655684
 20
-141.4967872753463
 30
0.0
  0
VERTEX
  5
172
  8
ANGLE
 10
-519.6648735870663
 20
-141.6628743527748
 30
0.0
  0
VERTEX
  5
173
  8
ANGLE
 10
-519.7287647661306
 20
-141.8374382180357
 30
0.0
  0
VERTEX
  5
174
  8
ANGLE
 10
-519.7755837584363
 20
-142.0195238268038
 30
0.0
  0
VERTEX
  5
175
  8
ANGLE
 10
-519.804375519658
 20
-142.208176134754
 30
0.0
  0
VERTEX
  5
176
  8
ANGLE
 10
-519.8141850054709
 20
-142.4024400975611
 30
0.0
  0
VERTEX
  5
177
  8
ANGLE
 10
-519.804375519658
 20
-142.5967040603682
 30
0.0
  0
VERTEX
  5
178
  8
ANGLE
 10
-519.7755837584363
 20
-142.7853563683184
 30
0.0
  0
VERTEX
  5
179
  8
ANGLE
 10
-519.7287647661306
 20
-142.9674419770865
 30
0.0
  0
VERTEX
  5
17A
  8
ANGLE
 10
-519.6648735870663
 20
-143.1420058423473
 30
0.0
  0
VERTEX
  5
17B
  8
ANGLE
 10
-519.5848652655684
 20
-143.3080929197758
 30
0.0
  0
VERTEX
  5
17C
  8
ANGLE
 10
-519.4896948459622
 20
-143.4647481650468
 30
0.0
  0
VERTEX
  5
17D
  8
ANGLE
 10
-519.3803173725728
 20
-143.6110165338351
 30
0.0
  0
VERTEX
  5
17E
  8
ANGLE
 10
-519.2576878897253
 20
-143.7459429818155
 30
0.0
  0
VERTEX
  5
17F
  8
ANGLE
 10
-519.1227614417448
 20
-143.8685724646631
 30
0.0
  0
VERTEX
  5
180
  8
ANGLE
 10
-518.9764930729565
 20
-143.9779499380525
 30
0.0
  0
VERTEX
  5
181
  8
ANGLE
 10
-518.8198378276855
 20
-144.0731203576587
 30
0.0
  0
VERTEX
  5
182
  8
ANGLE
 10
-518.6537507502571
 20
-144.1531286791565
 30
0.0
  0
VERTEX
  5
183
  8
ANGLE
 10
-518.4791868849964
 20
-144.2170198582208
 30
0.0
  0
VERTEX
  5
184
  8
ANGLE
 10
-518.2971012762282
 20
-144.2638388505264
 30
0.0
  0
VERTEX
  5
185
  8
ANGLE
 10
-518.108448968278
 20
-144.2926306117482
 30
0.0
  0
VERTEX
  5
186
  8
ANGLE
 10
-517.9141850054709
 20
-144.3024400975611
 30
0.0
  0
VERTEX
  5
187
  8
ANGLE
 10
-517.7199210426638
 20
-144.2926306117482
 30
0.0
  0
VERTEX
  5
188
  8
ANGLE
 10
-517.5312687347136
 20
-144.2638388505264
 30
0.0
  0
VERTEX
  5
189
  8
ANGLE
 10
-517.3491831259455
 20
-144.2170198582208
 30
0.0
  0
VERTEX
  5
18A
  8
ANGLE
 10
-517.1746192606847
 20
-144.1531286791565
 30
0.0
  0
VERTEX
  5
18B
  8
ANGLE
 10
-517.0085321832563
 20
-144.0731203576587
 30
0.0
  0
VERTEX
  5
18C
  8
ANGLE
 10
-516.8518769379854
 20
-143.9779499380525
 30
0.0
  0
VERTEX
  5
18D
  8
ANGLE
 10
-516.705608569197
 20
-143.8685724646631
 30
0.0
  0
VERTEX
  5
18E
  8
ANGLE
 10
-516.5706821212166
 20
-143.7459429818155
 30
0.0
  0
VERTEX
  5
18F
  8
ANGLE
 10
-516.4480526383691
 20
-143.6110165338351
 30
0.0
  0
VERTEX
  5
190
  8
ANGLE
 10
-516.3386751649797
 20
-143.4647481650468
 30
0.0
  0
VERTEX
  5
191
  8
ANGLE
 10
-516.2435047453735
 20
-143.3080929197758
 30
0.0
  0
VERTEX
  5
192
  8
ANGLE
 10
-516.1634964238756
 20
-143.1420058423473
 30
0.0
  0
VERTEX
  5
193
  8
ANGLE
 10
-516.0996052448113
 20
-142.9674419770865
 30
0.0
  0
VERTEX
  5
194
  8
ANGLE
 10
-516.0527862525056
 20
-142.7853563683184
 30
0.0
  0
VERTEX
  5
195
  8
ANGLE
 10
-516.0239944912838
 20
-142.5967040603682
 30
0.0
  0
VERTEX
  5
196
  8
ANGLE
 10
-516.014185005471
 20
-142.4024400975611
 30
0.0
  0
VERTEX
  5
197
  8
ANGLE
 10
-516.014185005471
 20
-139.2524400975611
 30
0.0
  0
SEQEND
  5
2E9
  8
ANGLE
  0
POLYLINE
  5
7F
  8
ANGLE
 66
     1
 10
0.0
 20
0.0
 30
0.0
  0
VERTEX
  5
198
  8
ANGLE
 10
-514.9141850054709
 20
-142.4024400975611
 30
0.0
  0
VERTEX
  5
199
  8
ANGLE
 10
-511.214185005471
 20
-142.4024400975611
 30
0.0
 42
0.9023199709436645
  0
VERTEX
  5
19A
  8
ANGLE
 10
-514.9575183388043
 20
-141.9357734308944
 30
0.0
 42
0.8623467340067498
  0
VERTEX
  5
19B
  8
ANGLE
 10
-511.464185005471
 20
-143.3024400975611
 30
0.0
  0
SEQEND
  5
2EA
  8
ANGLE
  0
POLYLINE
  5
80
  8
ANGLE
 66
     1
 10
0.0
 20
0.0
 30
0.0
 70
     1
  0
VERTEX
  5
19C
  8
ANGLE
 10
-508.3208516721376
 20
-144.3024400975611
 30
0.0
  0
VERTEX
  5
19D
  8
ANGLE
 10
-508.1265877093305
 20
-144.2926306117482
 30
0.0
  0
VERTEX
  5
19E
  8
ANGLE
 10
-507.9379354013803
 20
-144.2638388505264
 30
0.0
  0
VERTEX
  5
19F
  8
ANGLE
 10
-507.7558497926123
 20
-144.2170198582208
 30
0.0
  0
VERTEX
  5
1A0
  8
ANGLE
 10
-507.5812859273514
 20
-144.1531286791565
 30
0.0
  0
VERTEX
  5
1A1
  8
ANGLE
 10
-507.4151988499229
 20
-144.0731203576587
 30
0.0
  0
VERTEX
  5
1A2
  8
ANGLE
 10
-507.2585436046519
 20
-143.9779499380525
 30
0.0
  0
VERTEX
  5
1A3
  8
ANGLE
 10
-507.1122752358636
 20
-143.8685724646631
 30
0.0
  0
VERTEX
  5
1A4
  8
ANGLE
 10
-506.9773487878832
 20
-143.7459429818155
 30
0.0
  0
VERTEX
  5
1A5
  8
ANGLE
 10
-506.8547193050356
 20
-143.6110165338351
 30
0.0
  0
VERTEX
  5
1A6
  8
ANGLE
 10
-506.7453418316462
 20
-143.4647481650468
 30
0.0
  0
VERTEX
  5
1A7
  8
ANGLE
 10
-506.65017141204
 20
-143.3080929197758
 30
0.0
  0
VERTEX
  5
1A8
  8
ANGLE
 10
-506.5701630905422
 20
-143.1420058423473
 30
0.0
  0
VERTEX
  5
1A9
  8
ANGLE
 10
-506.5062719114779
 20
-142.9674419770865
 30
0.0
  0
VERTEX
  5
1AA
  8
ANGLE
 10
-506.4594529191723
 20
-142.7853563683184
 30
0.0
  0
VERTEX
  5
1AB
  8
ANGLE
 10
-506.4306611579505
 20
-142.5967040603682
 30
0.0
  0
VERTEX
  5
1AC
  8
ANGLE
 10
-506.4208516721376
 20
-142.4024400975611
 30
0.0
  0
VERTEX
  5
1AD
  8
ANGLE
 10
-506.4306611579505
 20
-142.208176134754
 30
0.0
  0
VERTEX
  5
1AE
  8
ANGLE
 10
-506.4594529191723
 20
-142.0195238268038
 30
0.0
  0
VERTEX
  5
1AF
  8
ANGLE
 10
-506.5062719114779
 20
-141.8374382180357
 30
0.0
  0
VERTEX
  5
1B0
  8
ANGLE
 10
-506.5701630905422
 20
-141.6628743527748
 30
0.0
  0
VERTEX
  5
1B1
  8
ANGLE
 10
-506.65017141204
 20
-141.4967872753463
 30
0.0
  0
VERTEX
  5
1B2
  8
ANGLE
 10
-506.7453418316462
 20
-141.3401320300754
 30
0.0
  0
VERTEX
  5
1B3
  8
ANGLE
 10
-506.8547193050356
 20
-141.1938636612871
 30
0.0
  0
VERTEX
  5
1B4
  8
ANGLE
 10
-506.9773487878832
 20
-141.0589372133066
 30
0.0
  0
VERTEX
  5
1B5
  8
ANGLE
 10
-507.1122752358636
 20
-140.9363077304591
 30
0.0
  0
VERTEX
  5
1B6
  8
ANGLE
 10
-507.2585436046519
 20
-140.8269302570696
 30
0.0
  0
VERTEX
  5
1B7
  8
ANGLE
 10
-507.4151988499229
 20
-140.7317598374635
 30
0.0
  0
VERTEX
  5
1B8
  8
ANGLE
 10
-507.5812859273514
 20
-140.6517515159657
 30
0.0
  0
VERTEX
  5
1B9
  8
ANGLE
 10
-507.7558497926123
 20
-140.5878603369013
 30
0.0
  0
VERTEX
  5
1BA
  8
ANGLE
 10
-507.9379354013803
 20
-140.5410413445957
 30
0.0
  0
VERTEX
  5
1BB
  8
ANGLE
 10
-508.1265877093305
 20
-140.5122495833739
 30
0.0
  0
VERTEX
  5
1BC
  8
ANGLE
 10
-508.3208516721376
 20
-140.5024400975611
 30
0.0
  0
VERTEX
  5
1BD
  8
ANGLE
 10
-508.5151156349448
 20
-140.5122495833739
 30
0.0
  0
VERTEX
  5
1BE
  8
ANGLE
 10
-508.703767942895
 20
-140.5410413445957
 30
0.0
  0
VERTEX
  5
1BF
  8
ANGLE
 10
-508.885853551663
 20
-140.5878603369013
 30
0.0
  0
VERTEX
  5
1C0
  8
ANGLE
 10
-509.0604174169239
 20
-140.6517515159657
 30
0.0
  0
VERTEX
  5
1C1
  8
ANGLE
 10
-509.2265044943524
 20
-140.7317598374635
 30
0.0
  0
VERTEX
  5
1C2
  8
ANGLE
 10
-509.3831597396233
 20
-140.8269302570696
 30
0.0
  0
VERTEX
  5
1C3
  8
ANGLE
 10
-509.5294281084116
 20
-140.9363077304591
 30
0.0
  0
VERTEX
  5
1C4
  8
ANGLE
 10
-509.6643545563921
 20
-141.0589372133066
 30
0.0
  0
VERTEX
  5
1C5
  8
ANGLE
 10
-509.7869840392397
 20
-141.1938636612871
 30
0.0
  0
VERTEX
  5
1C6
  8
ANGLE
 10
-509.8963615126291
 20
-141.3401320300754
 30
0.0
  0
VERTEX
  5
1C7
  8
ANGLE
 10
-509.9915319322353
 20
-141.4967872753463
 30
0.0
  0
VERTEX
  5
1C8
  8
ANGLE
 10
-510.0715402537331
 20
-141.6628743527748
 30
0.0
  0
VERTEX
  5
1C9
  8
ANGLE
 10
-510.1354314327973
 20
-141.8374382180357
 30
0.0
  0
VERTEX
  5
1CA
  8
ANGLE
 10
-510.1822504251029
 20
-142.0195238268038
 30
0.0
  0
VERTEX
  5
1CB
  8
ANGLE
 10
-510.2110421863248
 20
-142.208176134754
 30
0.0
  0
VERTEX
  5
1CC
  8
ANGLE
 10
-510.2208516721376
 20
-142.4024400975611
 30
0.0
  0
VERTEX
  5
1CD
  8
ANGLE
 10
-510.2110421863248
 20
-142.5967040603682
 30
0.0
  0
VERTEX
  5
1CE
  8
ANGLE
 10
-510.1822504251029
 20
-142.7853563683184
 30
0.0
  0
VERTEX
  5
1CF
  8
ANGLE
 10
-510.1354314327973
 20
-142.9674419770865
 30
0.0
  0
VERTEX
  5
1D0
  8
ANGLE
 10
-510.0715402537331
 20
-143.1420058423473
 30
0.0
  0
VERTEX
  5
1D1
  8
ANGLE
 10
-509.9915319322353
 20
-143.3080929197758
 30
0.0
  0
VERTEX
  5
1D2
  8
ANGLE
 10
-509.8963615126291
 20
-143.4647481650468
 30
0.0
  0
VERTEX
  5
1D3
  8
ANGLE
 10
-509.7869840392397
 20
-143.6110165338351
 30
0.0
  0
VERTEX
  5
1D4
  8
ANGLE
 10
-509.6643545563921
 20
-143.7459429818155
 30
0.0
  0
VERTEX
  5
1D5
  8
ANGLE
 10
-509.5294281084116
 20
-143.8685724646631
 30
0.0
  0
VERTEX
  5
1D6
  8
ANGLE
 10
-509.3831597396233
 20
-143.9779499380525
 30
0.0
  0
VERTEX
  5
1D7
  8
ANGLE
 10
-509.2265044943524
 20
-144.0731203576587
 30
0.0
  0
VERTEX
  5
1D8
  8
ANGLE
 10
-509.0604174169239
 20
-144.1531286791565
 30
0.0
  0
VERTEX
  5
1D9
  8
ANGLE
 10
-508.885853551663
 20
-144.2170198582208
 30
0.0
  0
VERTEX
  5
1DA
  8
ANGLE
 10
-508.703767942895
 20
-144.2638388505264
 30
0.0
  0
VERTEX
  5
1DB
  8
ANGLE
 10
-508.5151156349448
 20
-144.2926306117482
 30
0.0
  0
SEQEND
  5
2EB
  8
ANGLE
  0
POLYLINE
  5
81
  8
ANGLE
 66
     1
 10
0.0
 20
0.0
 30
0.0
  0
VERTEX
  5
1DC
  8
ANGLE
 10
-508.3208516721376
 20
-144.3024400975611
 30
0.0
 42
0.4216306000241346
  0
VERTEX
  5
1DD
  8
ANGLE
 10
-506.4208516721376
 20
-142.3524400975611
 30
0.0
  0
VERTEX
  5
1DE
  8
ANGLE
 10
-506.4208516721376
 20
-140.5024400975611
 30
0.0
  0
VERTEX
  5
1DF
  8
ANGLE
 10
-506.4208516721376
 20
-143.6524400975611
 30
0.0
 42
-0.7823487490295122
  0
VERTEX
  5
1E0
  8
ANGLE
 10
-509.9708516721376
 20
-144.5524400975611
 30
0.0
  0
SEQEND
  5
2EC
  8
ANGLE
  0
POLYLINE
  5
82
  8
ANGLE
 66
     1
 10
0.0
 20
0.0
 30
0.0
  0
VERTEX
  5
1E1
  8
ANGLE
 10
-505.4208516721376
 20
-144.2524400975611
 30
0.0
  0
VERTEX
  5
1E2
  8
ANGLE
 10
-505.4208516721376
 20
-140.5524400975611
 30
0.0
  0
VERTEX
  5
1E3
  8
ANGLE
 10
-505.4208516721376
 20
-141.9524400975611
 30
0.0
 42
-0.4160919540229884
  0
VERTEX
  5
1E4
  8
ANGLE
 10
-503.9708516721376
 20
-140.5024400975611
 30
0.0
  0
SEQEND
  5
2ED
  8
ANGLE
  0
POLYLINE
  5
83
  8
ANGLE
 66
     1
 10
0.0
 20
0.0
 30
0.0
  0
VERTEX
  5
1E5
  8
ANGLE
 10
-502.8708516721376
 20
-142.4024400975611
 30
0.0
  0
VERTEX
  5
1E6
  8
ANGLE
 10
-499.1708516721376
 20
-142.4024400975611
 30
0.0
 42
0.9023199709436645
  0
VERTEX
  5
1E7
  8
ANGLE
 10
-502.9141850054709
 20
-141.9357734308944
 30
0.0
 42
0.8623467340067498
  0
VERTEX
  5
1E8
  8
ANGLE
 10
-499.4208516721376
 20
-143.3024400975611
 30
0.0
  0
SEQEND
  5
2EE
  8
ANGLE
  0
POLYLINE
  5
84
  8
ANGLE
 66
     1
 10
0.0
 20
0.0
 30
0.0
  0
VERTEX
  5
1E9
  8
ANGLE
 10
-498.0708516721376
 20
-142.4024400975611
 30
0.0
  0
VERTEX
  5
1EA
  8
ANGLE
 10
-494.3708516721376
 20
-142.4024400975611
 30
0.0
 42
0.9023199709436645
  0
VERTEX
  5
1EB
  8
ANGLE
 10
-498.1141850054709
 20
-141.9357734308944
 30
0.0
 42
0.8623467340067498
  0
VERTEX
  5
1EC
  8
ANGLE
 10
-494.6208516721376
 20
-143.3024400975611
 30
0.0
  0
SEQEND
  5
2EF
  8
ANGLE
  0
POLYLINE
  5
85
  8
ANGLE
 66
     1
 10
0.0
 20
0.0
 30
0.0
  0
VERTEX
  5
1ED
  8
ANGLE
 10
-403.6785659915278
 20
-141.0677481897837
 30
0.0
  0
VERTEX
  5
1EE
  8
ANGLE
 10
-400.8785659915279
 20
-141.0677481897837
 30
0.0
  0
VERTEX
  5
1EF
  8
ANGLE
 10
-403.0785659915279
 20
-146.0677481897837
 30
0.0
  0
SEQEND
  5
2F0
  8
ANGLE
  0
POLYLINE
  5
86
  8
ANGLE
 66
     1
 10
0.0
 20
0.0
 30
0.0
  0
VERTEX
  5
1F0
  8
ANGLE
 10
-399.6318993248611
 20
-142.2677481897837
 30
0.0
 42
-0.4548493327042687
  0
VERTEX
  5
1F1
  8
ANGLE
 10
-398.5318993248612
 20
-141.0077481897837
 30
0.0
 42
-0.4114350750726344
  0
VERTEX
  5
1F2
  8
ANGLE
 10
-397.4318993248611
 20
-142.1177481897837
 30
0.0
  0
VERTEX
  5
1F3
  8
ANGLE
 10
-397.4318993248611
 20
-142.2677481897837
 30
0.0
 42
-0.4121212121212124
  0
VERTEX
  5
1F4
  8
ANGLE
 10
-398.5318993248612
 20
-143.3677481897837
 30
0.0
  0
VERTEX
  5
1F5
  8
ANGLE
 10
-398.7818993248612
 20
-143.3677481897837
 30
0.0
  0
VERTEX
  5
1F6
  8
ANGLE
 10
-398.4818993248612
 20
-143.3677481897837
 30
0.0
 42
-0.4142857142857143
  0
VERTEX
  5
1F7
  8
ANGLE
 10
-397.0818993248612
 20
-144.7677481897837
 30
0.0
 42
-0.9462693881493045
  0
VERTEX
  5
1F8
  8
ANGLE
 10
-399.8818993248611
 20
-144.8177481897837
 30
0.0
  0
SEQEND
  5
2F1
  8
ANGLE
  0
POLYLINE
  5
87
  8
ANGLE
 66
     1
 10
0.0
 20
0.0
 30
0.0
  0
VERTEX
  5
1F9
  8
ANGLE
 10
-388.0818993248612
 20
-146.0677481897837
 30
0.0
  0
VERTEX
  5
1FA
  8
ANGLE
 10
-388.0818993248612
 20
-144.2177481897837
 30
0.0
  0
VERTEX
  5
1FB
  8
ANGLE
 10
-388.091708810674
 20
-144.0234842269766
 30
0.0
  0
VERTEX
  5
1FC
  8
ANGLE
 10
-388.1205005718959
 20
-143.8348319190264
 30
0.0
  0
VERTEX
  5
1FD
  8
ANGLE
 10
-388.1673195642015
 20
-143.6527463102583
 30
0.0
  0
VERTEX
  5
1FE
  8
ANGLE
 10
-388.2312107432658
 20
-143.4781824449975
 30
0.0
  0
VERTEX
  5
1FF
  8
ANGLE
 10
-388.3112190647636
 20
-143.312095367569
 30
0.0
  0
VERTEX
  5
200
  8
ANGLE
 10
-388.4063894843698
 20
-143.155440122298
 30
0.0
  0
VERTEX
  5
201
  8
ANGLE
 10
-388.5157669577592
 20
-143.0091717535097
 30
0.0
  0
VERTEX
  5
202
  8
ANGLE
 10
-388.6383964406067
 20
-142.8742453055293
 30
0.0
  0
VERTEX
  5
203
  8
ANGLE
 10
-388.7733228885871
 20
-142.7516158226817
 30
0.0
  0
VERTEX
  5
204
  8
ANGLE
 10
-388.9195912573755
 20
-142.6422383492923
 30
0.0
  0
VERTEX
  5
205
  8
ANGLE
 10
-389.0762465026464
 20
-142.5470679296861
 30
0.0
  0
VERTEX
  5
206
  8
ANGLE
 10
-389.2423335800749
 20
-142.4670596081883
 30
0.0
  0
VERTEX
  5
207
  8
ANGLE
 10
-389.4168974453357
 20
-142.403168429124
 30
0.0
  0
VERTEX
  5
208
  8
ANGLE
 10
-389.5989830541038
 20
-142.3563494368184
 30
0.0
  0
VERTEX
  5
209
  8
ANGLE
 10
-389.7876353620541
 20
-142.3275576755966
 30
0.0
  0
VERTEX
  5
20A
  8
ANGLE
 10
-389.9818993248612
 20
-142.3177481897837
 30
0.0
  0
VERTEX
  5
20B
  8
ANGLE
 10
-390.1761632876683
 20
-142.3275576755966
 30
0.0
  0
VERTEX
  5
20C
  8
ANGLE
 10
-390.3648155956185
 20
-142.3563494368184
 30
0.0
  0
VERTEX
  5
20D
  8
ANGLE
 10
-390.5469012043866
 20
-142.403168429124
 30
0.0
  0
VERTEX
  5
20E
  8
ANGLE
 10
-390.7214650696474
 20
-142.4670596081883
 30
0.0
  0
VERTEX
  5
20F
  8
ANGLE
 10
-390.8875521470759
 20
-142.5470679296861
 30
0.0
  0
VERTEX
  5
210
  8
ANGLE
 10
-391.0442073923468
 20
-142.6422383492923
 30
0.0
  0
VERTEX
  5
211
  8
ANGLE
 10
-391.1904757611352
 20
-142.7516158226817
 30
0.0
  0
VERTEX
  5
212
  8
ANGLE
 10
-391.3254022091156
 20
-142.8742453055293
 30
0.0
  0
VERTEX
  5
213
  8
ANGLE
 10
-391.4480316919631
 20
-143.0091717535097
 30
0.0
  0
VERTEX
  5
214
  8
ANGLE
 10
-391.5574091653526
 20
-143.155440122298
 30
0.0
  0
VERTEX
  5
215
  8
ANGLE
 10
-391.6525795849587
 20
-143.312095367569
 30
0.0
  0
VERTEX
  5
216
  8
ANGLE
 10
-391.7325879064566
 20
-143.4781824449975
 30
0.0
  0
VERTEX
  5
217
  8
ANGLE
 10
-391.7964790855208
 20
-143.6527463102583
 30
0.0
  0
VERTEX
  5
218
  8
ANGLE
 10
-391.8432980778264
 20
-143.8348319190264
 30
0.0
  0
VERTEX
  5
219
  8
ANGLE
 10
-391.8720898390483
 20
-144.0234842269766
 30
0.0
  0
VERTEX
  5
21A
  8
ANGLE
 10
-391.8818993248611
 20
-144.2177481897837
 30
0.0
  0
VERTEX
  5
21B
  8
ANGLE
 10
-391.8720898390483
 20
-144.4120121525908
 30
0.0
  0
VERTEX
  5
21C
  8
ANGLE
 10
-391.8432980778264
 20
-144.600664460541
 30
0.0
  0
VERTEX
  5
21D
  8
ANGLE
 10
-391.7964790855208
 20
-144.7827500693091
 30
0.0
  0
VERTEX
  5
21E
  8
ANGLE
 10
-391.7325879064566
 20
-144.95731393457
 30
0.0
  0
VERTEX
  5
21F
  8
ANGLE
 10
-391.6525795849587
 20
-145.1234010119985
 30
0.0
  0
VERTEX
  5
220
  8
ANGLE
 10
-391.5574091653526
 20
-145.2800562572694
 30
0.0
  0
VERTEX
  5
221
  8
ANGLE
 10
-391.4480316919631
 20
-145.4263246260577
 30
0.0
  0
VERTEX
  5
222
  8
ANGLE
 10
-391.3254022091156
 20
-145.5612510740382
 30
0.0
  0
VERTEX
  5
223
  8
ANGLE
 10
-391.1904757611352
 20
-145.6838805568857
 30
0.0
  0
VERTEX
  5
224
  8
ANGLE
 10
-391.0442073923468
 20
-145.7932580302751
 30
0.0
  0
VERTEX
  5
225
  8
ANGLE
 10
-390.8875521470759
 20
-145.8884284498813
 30
0.0
  0
VERTEX
  5
226
  8
ANGLE
 10
-390.7214650696474
 20
-145.9684367713791
 30
0.0
  0
VERTEX
  5
227
  8
ANGLE
 10
-390.5469012043866
 20
-146.0323279504434
 30
0.0
  0
VERTEX
  5
228
  8
ANGLE
 10
-390.3648155956185
 20
-146.079146942749
 30
0.0
  0
VERTEX
  5
229
  8
ANGLE
 10
-390.1761632876683
 20
-146.1079387039709
 30
0.0
  0
VERTEX
  5
22A
  8
ANGLE
 10
-389.9818993248612
 20
-146.1177481897837
 30
0.0
  0
VERTEX
  5
22B
  8
ANGLE
 10
-389.7876353620541
 20
-146.1079387039709
 30
0.0
  0
VERTEX
  5
22C
  8
ANGLE
 10
-389.5989830541038
 20
-146.079146942749
 30
0.0
  0
VERTEX
  5
22D
  8
ANGLE
 10
-389.4168974453357
 20
-146.0323279504434
 30
0.0
  0
VERTEX
  5
22E
  8
ANGLE
 10
-389.2423335800749
 20
-145.9684367713791
 30
0.0
  0
VERTEX
  5
22F
  8
ANGLE
 10
-389.0762465026464
 20
-145.8884284498813
 30
0.0
  0
VERTEX
  5
230
  8
ANGLE
 10
-388.9195912573755
 20
-145.7932580302751
 30
0.0
  0
VERTEX
  5
231
  8
ANGLE
 10
-388.7733228885871
 20
-145.6838805568857
 30
0.0
  0
VERTEX
  5
232
  8
ANGLE
 10
-388.6383964406067
 20
-145.5612510740382
 30
0.0
  0
VERTEX
  5
233
  8
ANGLE
 10
-388.5157669577592
 20
-145.4263246260577
 30
0.0
  0
VERTEX
  5
234
  8
ANGLE
 10
-388.4063894843698
 20
-145.2800562572694
 30
0.0
  0
VERTEX
  5
235
  8
ANGLE
 10
-388.3112190647636
 20
-145.1234010119985
 30
0.0
  0
VERTEX
  5
236
  8
ANGLE
 10
-388.2312107432658
 20
-144.95731393457
 30
0.0
  0
VERTEX
  5
237
  8
ANGLE
 10
-388.1673195642015
 20
-144.7827500693091
 30
0.0
  0
VERTEX
  5
238
  8
ANGLE
 10
-388.1205005718959
 20
-144.600664460541
 30
0.0
  0
VERTEX
  5
239
  8
ANGLE
 10
-388.091708810674
 20
-144.4120121525908
 30
0.0
  0
VERTEX
  5
23A
  8
ANGLE
 10
-388.0818993248612
 20
-144.2177481897837
 30
0.0
  0
VERTEX
  5
23B
  8
ANGLE
 10
-388.0818993248612
 20
-141.0677481897837
 30
0.0
  0
SEQEND
  5
2F2
  8
ANGLE
  0
POLYLINE
  5
88
  8
ANGLE
 66
     1
 10
0.0
 20
0.0
 30
0.0
  0
VERTEX
  5
23C
  8
ANGLE
 10
-386.9818993248612
 20
-144.2177481897837
 30
0.0
  0
VERTEX
  5
23D
  8
ANGLE
 10
-383.2818993248612
 20
-144.2177481897837
 30
0.0
 42
0.9023199709436645
  0
VERTEX
  5
23E
  8
ANGLE
 10
-387.0252326581945
 20
-143.7510815231171
 30
0.0
 42
0.8623467340067498
  0
VERTEX
  5
23F
  8
ANGLE
 10
-383.5318993248612
 20
-145.1177481897837
 30
0.0
  0
SEQEND
  5
2F3
  8
ANGLE
  0
POLYLINE
  5
89
  8
ANGLE
 66
     1
 10
0.0
 20
0.0
 30
0.0
 70
     1
  0
VERTEX
  5
240
  8
ANGLE
 10
-380.3885659915278
 20
-146.1177481897837
 30
0.0
  0
VERTEX
  5
241
  8
ANGLE
 10
-380.1943020287207
 20
-146.1079387039709
 30
0.0
  0
VERTEX
  5
242
  8
ANGLE
 10
-380.0056497207705
 20
-146.079146942749
 30
0.0
  0
VERTEX
  5
243
  8
ANGLE
 10
-379.8235641120024
 20
-146.0323279504434
 30
0.0
  0
VERTEX
  5
244
  8
ANGLE
 10
-379.6490002467415
 20
-145.9684367713791
 30
0.0
  0
VERTEX
  5
245
  8
ANGLE
 10
-379.4829131693131
 20
-145.8884284498813
 30
0.0
  0
VERTEX
  5
246
  8
ANGLE
 10
-379.3262579240421
 20
-145.7932580302751
 30
0.0
  0
VERTEX
  5
247
  8
ANGLE
 10
-379.1799895552538
 20
-145.6838805568857
 30
0.0
  0
VERTEX
  5
248
  8
ANGLE
 10
-379.0450631072733
 20
-145.5612510740382
 30
0.0
  0
VERTEX
  5
249
  8
ANGLE
 10
-378.9224336244258
 20
-145.4263246260577
 30
0.0
  0
VERTEX
  5
24A
  8
ANGLE
 10
-378.8130561510364
 20
-145.2800562572694
 30
0.0
  0
VERTEX
  5
24B
  8
ANGLE
 10
-378.7178857314302
 20
-145.1234010119985
 30
0.0
  0
VERTEX
  5
24C
  8
ANGLE
 10
-378.6378774099324
 20
-144.95731393457
 30
0.0
  0
VERTEX
  5
24D
  8
ANGLE
 10
-378.5739862308682
 20
-144.7827500693091
 30
0.0
  0
VERTEX
  5
24E
  8
ANGLE
 10
-378.5271672385625
 20
-144.600664460541
 30
0.0
  0
VERTEX
  5
24F
  8
ANGLE
 10
-378.4983754773407
 20
-144.4120121525908
 30
0.0
  0
VERTEX
  5
250
  8
ANGLE
 10
-378.4885659915278
 20
-144.2177481897837
 30
0.0
  0
VERTEX
  5
251
  8
ANGLE
 10
-378.4983754773407
 20
-144.0234842269766
 30
0.0
  0
VERTEX
  5
252
  8
ANGLE
 10
-378.5271672385625
 20
-143.8348319190264
 30
0.0
  0
VERTEX
  5
253
  8
ANGLE
 10
-378.5739862308682
 20
-143.6527463102583
 30
0.0
  0
VERTEX
  5
254
  8
ANGLE
 10
-378.6378774099324
 20
-143.4781824449975
 30
0.0
  0
VERTEX
  5
255
  8
ANGLE
 10
-378.7178857314302
 20
-143.312095367569
 30
0.0
  0
VERTEX
  5
256
  8
ANGLE
 10
-378.8130561510364
 20
-143.155440122298
 30
0.0
  0
VERTEX
  5
257
  8
ANGLE
 10
-378.9224336244258
 20
-143.0091717535097
 30
0.0
  0
VERTEX
  5
258
  8
ANGLE
 10
-379.0450631072733
 20
-142.8742453055293
 30
0.0
  0
VERTEX
  5
259
  8
ANGLE
 10
-379.1799895552538
 20
-142.7516158226817
 30
0.0
  0
VERTEX
  5
25A
  8
ANGLE
 10
-379.3262579240421
 20
-142.6422383492923
 30
0.0
  0
VERTEX
  5
25B
  8
ANGLE
 10
-379.4829131693131
 20
-142.5470679296861
 30
0.0
  0
VERTEX
  5
25C
  8
ANGLE
 10
-379.6490002467415
 20
-142.4670596081883
 30
0.0
  0
VERTEX
  5
25D
  8
ANGLE
 10
-379.8235641120024
 20
-142.403168429124
 30
0.0
  0
VERTEX
  5
25E
  8
ANGLE
 10
-380.0056497207705
 20
-142.3563494368184
 30
0.0
  0
VERTEX
  5
25F
  8
ANGLE
 10
-380.1943020287207
 20
-142.3275576755966
 30
0.0
  0
VERTEX
  5
260
  8
ANGLE
 10
-380.3885659915278
 20
-142.3177481897837
 30
0.0
  0
VERTEX
  5
261
  8
ANGLE
 10
-380.5828299543349
 20
-142.3275576755966
 30
0.0
  0
VERTEX
  5
262
  8
ANGLE
 10
-380.7714822622851
 20
-142.3563494368184
 30
0.0
  0
VERTEX
  5
263
  8
ANGLE
 10
-380.9535678710532
 20
-142.403168429124
 30
0.0
  0
VERTEX
  5
264
  8
ANGLE
 10
-381.1281317363141
 20
-142.4670596081883
 30
0.0
  0
VERTEX
  5
265
  8
ANGLE
 10
-381.2942188137425
 20
-142.5470679296861
 30
0.0
  0
VERTEX
  5
266
  8
ANGLE
 10
-381.4508740590135
 20
-142.6422383492923
 30
0.0
  0
VERTEX
  5
267
  8
ANGLE
 10
-381.5971424278018
 20
-142.7516158226817
 30
0.0
  0
VERTEX
  5
268
  8
ANGLE
 10
-381.7320688757823
 20
-142.8742453055293
 30
0.0
  0
VERTEX
  5
269
  8
ANGLE
 10
-381.8546983586298
 20
-143.0091717535097
 30
0.0
  0
VERTEX
  5
26A
  8
ANGLE
 10
-381.9640758320192
 20
-143.155440122298
 30
0.0
  0
VERTEX
  5
26B
  8
ANGLE
 10
-382.0592462516254
 20
-143.312095367569
 30
0.0
  0
VERTEX
  5
26C
  8
ANGLE
 10
-382.1392545731232
 20
-143.4781824449975
 30
0.0
  0
VERTEX
  5
26D
  8
ANGLE
 10
-382.2031457521874
 20
-143.6527463102583
 30
0.0
  0
VERTEX
  5
26E
  8
ANGLE
 10
-382.2499647444931
 20
-143.8348319190264
 30
0.0
  0
VERTEX
  5
26F
  8
ANGLE
 10
-382.2787565057149
 20
-144.0234842269766
 30
0.0
  0
VERTEX
  5
270
  8
ANGLE
 10
-382.2885659915278
 20
-144.2177481897837
 30
0.0
  0
VERTEX
  5
271
  8
ANGLE
 10
-382.2787565057149
 20
-144.4120121525908
 30
0.0
  0
VERTEX
  5
272
  8
ANGLE
 10
-382.2499647444931
 20
-144.600664460541
 30
0.0
  0
VERTEX
  5
273
  8
ANGLE
 10
-382.2031457521874
 20
-144.7827500693091
 30
0.0
  0
VERTEX
  5
274
  8
ANGLE
 10
-382.1392545731232
 20
-144.95731393457
 30
0.0
  0
VERTEX
  5
275
  8
ANGLE
 10
-382.0592462516254
 20
-145.1234010119985
 30
0.0
  0
VERTEX
  5
276
  8
ANGLE
 10
-381.9640758320192
 20
-145.2800562572694
 30
0.0
  0
VERTEX
  5
277
  8
ANGLE
 10
-381.8546983586298
 20
-145.4263246260577
 30
0.0
  0
VERTEX
  5
278
  8
ANGLE
 10
-381.7320688757823
 20
-145.5612510740382
 30
0.0
  0
VERTEX
  5
279
  8
ANGLE
 10
-381.5971424278018
 20
-145.6838805568857
 30
0.0
  0
VERTEX
  5
27A
  8
ANGLE
 10
-381.4508740590135
 20
-145.7932580302751
 30
0.0
  0
VERTEX
  5
27B
  8
ANGLE
 10
-381.2942188137425
 20
-145.8884284498813
 30
0.0
  0
VERTEX
  5
27C
  8
ANGLE
 10
-381.1281317363141
 20
-145.9684367713791
 30
0.0
  0
VERTEX
  5
27D
  8
ANGLE
 10
-380.9535678710532
 20
-146.0323279504434
 30
0.0
  0
VERTEX
  5
27E
  8
ANGLE
 10
-380.7714822622851
 20
-146.079146942749
 30
0.0
  0
VERTEX
  5
27F
  8
ANGLE
 10
-380.5828299543349
 20
-146.1079387039709
 30
0.0
  0
SEQEND
  5
2F4
  8
ANGLE
  0
POLYLINE
  5
8A
  8
ANGLE
 66
     1
 10
0.0
 20
0.0
 30
0.0
  0
VERTEX
  5
280
  8
ANGLE
 10
-380.3885659915278
 20
-146.1177481897837
 30
0.0
 42
0.4216306000241346
  0
VERTEX
  5
281
  8
ANGLE
 10
-378.4885659915278
 20
-144.1677481897837
 30
0.0
  0
VERTEX
  5
282
  8
ANGLE
 10
-378.4885659915278
 20
-142.3177481897837
 30
0.0
  0
VERTEX
  5
283
  8
ANGLE
 10
-378.4885659915278
 20
-145.4677481897837
 30
0.0
 42
-0.7823487490295122
  0
VERTEX
  5
284
  8
ANGLE
 10
-382.0385659915278
 20
-146.3677481897837
 30
0.0
  0
SEQEND
  5
2F5
  8
ANGLE
  0
POLYLINE
  5
8B
  8
ANGLE
 66
     1
 10
0.0
 20
0.0
 30
0.0
  0
VERTEX
  5
285
  8
ANGLE
 10
-377.4885659915278
 20
-146.0677481897837
 30
0.0
  0
VERTEX
  5
286
  8
ANGLE
 10
-377.4885659915278
 20
-142.3677481897837
 30
0.0
  0
VERTEX
  5
287
  8
ANGLE
 10
-377.4885659915278
 20
-143.7677481897837
 30
0.0
 42
-0.4160919540229884
  0
VERTEX
  5
288
  8
ANGLE
 10
-376.0385659915278
 20
-142.3177481897837
 30
0.0
  0
SEQEND
  5
2F6
  8
ANGLE
  0
POLYLINE
  5
8C
  8
ANGLE
 66
     1
 10
0.0
 20
0.0
 30
0.0
  0
VERTEX
  5
289
  8
ANGLE
 10
-374.9385659915278
 20
-144.2177481897837
 30
0.0
  0
VERTEX
  5
28A
  8
ANGLE
 10
-371.2385659915278
 20
-144.2177481897837
 30
0.0
 42
0.9023199709436645
  0
VERTEX
  5
28B
  8
ANGLE
 10
-374.9818993248611
 20
-143.7510815231171
 30
0.0
 42
0.8623467340067498
  0
VERTEX
  5
28C
  8
ANGLE
 10
-371.4885659915278
 20
-145.1177481897837
 30
0.0
  0
SEQEND
  5
2F7
  8
ANGLE
  0
POLYLINE
  5
8D
  8
ANGLE
 66
     1
 10
0.0
 20
0.0
 30
0.0
  0
VERTEX
  5
28D
  8
ANGLE
 10
-370.1385659915278
 20
-144.2177481897837
 30
0.0
  0
VERTEX
  5
28E
  8
ANGLE
 10
-366.4385659915278
 20
-144.2177481897837
 30
0.0
 42
0.9023199709436645
  0
VERTEX
  5
28F
  8
ANGLE
 10
-370.1818993248611
 20
-143.7510815231171
 30
0.0
 42
0.8623467340067498
  0
VERTEX
  5
290
  8
ANGLE
 10
-366.6885659915278
 20
-145.1177481897837
 30
0.0
  0
SEQEND
  5
2F8
  8
ANGLE
  0
POLYLINE
  5
8F
  8
LAYER0000
 66
     1
 10
0.0
 20
0.0
 30
0.0
 70
     1
  0
VERTEX
  5
291
  8
LAYER0000
 10
-448.3021997959505
 20
-163.9748079978531
 30
0.0
  0
VERTEX
  5
292
  8
LAYER0000
 10
-448.2942123840243
 20
-163.9704892309452
 30
0.0
  0
VERTEX
  5
293
  8
LAYER0000
 10
-512.4245123840243
 20
-165.040124204929
 30
0.0
 42
0.0437988336105157
  0
VERTEX
  5
294
  8
LAYER0000
 10
-514.163623578843
 20
-165.2220321714474
 30
0.0
  0
VERTEX
  5
295
  8
LAYER0000
 10
-530.7326145438199
 20
-168.4123349204515
 30
0.0
 42
0.3606321936773301
  0
VERTEX
  5
296
  8
LAYER0000
 10
-538.8418030281133
 20
-178.2707924675998
 30
0.0
  0
VERTEX
  5
297
  8
LAYER0000
 10
-538.8418030281133
 20
-196.7453592377918
 30
0.0
 42
0.2760843060107031
  0
VERTEX
  5
298
  8
LAYER0000
 10
-533.5771560288373
 20
-205.5531076423805
 30
0.0
  0
VERTEX
  5
299
  8
LAYER0000
 10
-515.2434032682908
 20
-215.3413259313596
 30
0.0
 42
0.1081948439855369
  0
VERTEX
  5
29A
  8
LAYER0000
 10
-511.1262334825885
 20
-216.5022679841206
 30
0.0
  0
VERTEX
  5
29B
  8
LAYER0000
 10
-469.7570148404334
 20
-218.7975827847122
 30
0.0
 42
0.3313638415574681
  0
VERTEX
  5
29C
  8
LAYER0000
 10
-459.7967323202248
 20
-212.2072810706159
 30
0.0
  0
VERTEX
  5
29D
  8
LAYER0000
 10
-454.004632194614
 20
-195.9629134498048
 30
0.0
 42
-0.3182508859196779
  0
VERTEX
  5
29E
  8
LAYER0000
 10
-451.1663665218186
 20
-193.9704892309452
 30
0.0
  0
VERTEX
  5
29F
  8
LAYER0000
 10
-448.3021997959505
 20
-193.9704892309452
 30
0.0
  0
VERTEX
  5
2A0
  8
LAYER0000
 10
-445.425502621947
 20
-193.9704892309452
 30
0.0
 42
-0.3167915413828579
  0
VERTEX
  5
2A1
  8
LAYER0000
 10
-442.6008960920315
 20
-195.9597479429997
 30
0.0
  0
VERTEX
  5
2A2
  8
LAYER0000
 10
-436.8204222078766
 20
-212.1715089209417
 30
0.0
 42
0.3335040946796137
  0
VERTEX
  5
2A3
  8
LAYER0000
 10
-426.8083351365103
 20
-218.7954161699655
 30
0.0
  0
VERTEX
  5
2A4
  8
LAYER0000
 10
-384.4133002393467
 20
-216.4431853504088
 30
0.0
 42
0.1082662885625797
  0
VERTEX
  5
2A5
  8
LAYER0000
 10
-382.351240638455
 20
-215.8700080642386
 30
0.0
  0
VERTEX
  5
2A6
  8
LAYER0000
 10
-360.4076953614757
 20
-204.1545554773911
 30
0.0
 42
0.2780297107522513
  0
VERTEX
  5
2A7
  8
LAYER0000
 10
-357.7625965637874
 20
-199.7222236441692
 30
0.0
  0
VERTEX
  5
2A8
  8
LAYER0000
 10
-357.7625965637874
 20
-174.1028222353053
 30
0.0
 42
0.3602929799525903
  0
VERTEX
  5
2A9
  8
LAYER0000
 10
-361.8304001065674
 20
-169.1904898193195
 30
0.0
  0
VERTEX
  5
2AA
  8
LAYER0000
 10
-382.8832945068946
 20
-165.1368267434068
 30
0.0
 42
0.0424566366874408
  0
VERTEX
  5
2AB
  8
LAYER0000
 10
-383.7261995364028
 20
-165.047691301928
 30
0.0
  0
VERTEX
  5
2AC
  8
LAYER0000
 10
-448.3101872078767
 20
-163.9704892309452
 30
0.0
  0
SEQEND
  5
2F9
  8
LAYER0000
  0
POLYLINE
  5
90
  8
LAYER0000
 66
     1
 10
0.0
 20
0.0
 30
0.0
 70
     1
  0
VERTEX
  5
2AD
  8
LAYER0000
 10
-365.4234459051071
 20
-191.6839508166834
 30
0.0
  0
VERTEX
  5
2AE
  8
LAYER0000
 10
-365.4234459051071
 20
-183.7134490340923
 30
0.0
 42
-0.425771445430886
  0
VERTEX
  5
2AF
  8
LAYER0000
 10
-364.3841567982669
 20
-182.7142211491264
 30
0.0
  0
VERTEX
  5
2B0
  8
LAYER0000
 10
-362.4234459051071
 20
-182.7142211491264
 30
0.0
 42
-0.4142135623730994
  0
VERTEX
  5
2B1
  8
LAYER0000
 10
-361.4234459051071
 20
-183.7142211491264
 30
0.0
  0
VERTEX
  5
2B2
  8
LAYER0000
 10
-361.4234459051071
 20
-191.6839570218384
 30
0.0
 42
-0.415245752235647
  0
VERTEX
  5
2B3
  8
LAYER0000
 10
-362.4269687279468
 20
-192.6839508166834
 30
0.0
  0
VERTEX
  5
2B4
  8
LAYER0000
 10
-364.4234459051071
 20
-192.6839508166834
 30
0.0
 42
-0.4142135623730994
  0
SEQEND
  5
2FA
  8
LAYER0000
  0
POLYLINE
  5
91
  8
LAYER0000
 66
     1
 10
0.0
 20
0.0
 30
0.0
 70
     1
  0
VERTEX
  5
2B5
  8
LAYER0000
 10
-371.7729341328624
 20
-182.7142211491264
 30
0.0
  0
VERTEX
  5
2B6
  8
LAYER0000
 10
-369.7764473115304
 20
-182.7142211491264
 30
0.0
 42
-0.4155004234751723
  0
VERTEX
  5
2B7
  8
LAYER0000
 10
-368.7764569546695
 20
-183.7186127538073
 30
0.0
  0
VERTEX
  5
2B8
  8
LAYER0000
 10
-368.7764569546695
 20
-191.6843156226727
 30
0.0
 42
-0.4221475520202901
  0
VERTEX
  5
2B9
  8
LAYER0000
 10
-369.8034658216517
 20
-192.6839508166834
 30
0.0
  0
VERTEX
  5
2BA
  8
LAYER0000
 10
-371.7766400366356
 20
-192.6839508166834
 30
0.0
 42
-0.4198294509485772
  0
VERTEX
  5
2BB
  8
LAYER0000
 10
-372.7764569546695
 20
-191.6648162820803
 30
0.0
  0
VERTEX
  5
2BC
  8
LAYER0000
 10
-372.7764569546695
 20
-183.7142149439714
 30
0.0
 42
-0.4152457519355348
  0
SEQEND
  5
2FB
  8
LAYER0000
  0
POLYLINE
  5
92
  8
LAYER0000
 66
     1
 10
0.0
 20
0.0
 30
0.0
 70
     1
  0
VERTEX
  5
2BD
  8
LAYER0000
 10
-534.6711568051676
 20
-183.7142211491264
 30
0.0
  0
VERTEX
  5
2BE
  8
LAYER0000
 10
-534.6711568051676
 20
-191.6847229317175
 30
0.0
 42
0.425771445398328
  0
VERTEX
  5
2BF
  8
LAYER0000
 10
-533.6318676984489
 20
-192.6839508166834
 30
0.0
  0
VERTEX
  5
2C0
  8
LAYER0000
 10
-531.6711568051676
 20
-192.6839508166834
 30
0.0
 42
0.4142135623730928
  0
VERTEX
  5
2C1
  8
LAYER0000
 10
-530.6711568051676
 20
-191.6839508166834
 30
0.0
  0
VERTEX
  5
2C2
  8
LAYER0000
 10
-530.6711568051676
 20
-183.7142149439714
 30
0.0
 42
0.4152457518605117
  0
VERTEX
  5
2C3
  8
LAYER0000
 10
-531.6746796267165
 20
-182.7142211491264
 30
0.0
  0
VERTEX
  5
2C4
  8
LAYER0000
 10
-533.6711568051676
 20
-182.7142211491264
 30
0.0
 42
0.4142135623730928
  0
SEQEND
  5
2FC
  8
LAYER0000
  0
POLYLINE
  5
93
  8
LAYER0000
 66
     1
 10
0.0
 20
0.0
 30
0.0
 70
     1
  0
VERTEX
  5
2C5
  8
LAYER0000
 10
-526.3146229340563
 20
-192.6839508166834
 30
0.0
  0
VERTEX
  5
2C6
  8
LAYER0000
 10
-524.3180701900543
 20
-192.6839508166834
 30
0.0
 42
0.4178188803511564
  0
VERTEX
  5
2C7
  8
LAYER0000
 10
-523.3181457556052
 20
-191.671657509896
 30
0.0
  0
VERTEX
  5
2C8
  8
LAYER0000
 10
-523.3181457556052
 20
-183.7142149439714
 30
0.0
 42
0.4152457518605117
  0
VERTEX
  5
2C9
  8
LAYER0000
 10
-524.321668577154
 20
-182.7142211491264
 30
0.0
  0
VERTEX
  5
2CA
  8
LAYER0000
 10
-526.3181457556052
 20
-182.7142211491264
 30
0.0
 42
0.4142135623730923
  0
VERTEX
  5
2CB
  8
LAYER0000
 10
-527.3181457556052
 20
-183.7142211491264
 30
0.0
  0
VERTEX
  5
2CC
  8
LAYER0000
 10
-527.3181457556052
 20
-191.6839570218384
 30
0.0
 42
0.4152457518605117
  0
SEQEND
  5
2FD
  8
LAYER0000
  0
POLYLINE
  5
94
  8
LAYER0000
 66
     1
 10
0.0
 20
0.0
 30
0.0
 70
     1
  0
VERTEX
  5
2CD
  8
LAYER0000
 10
-377.6612141315981
 20
-191.6302384570216
 30
0.0
  0
VERTEX
  5
2CE
  8
LAYER0000
 10
-377.6612141315981
 20
-183.7441380163079
 30
0.0
 42
-0.4220229021011171
  0
VERTEX
  5
2CF
  8
LAYER0000
 10
-376.6346283161008
 20
-182.7444914815695
 30
0.0
 42
-0.4064471092870081
  0
VERTEX
  5
2D0
  8
LAYER0000
 10
-375.6612141315981
 20
-183.7441380163079
 30
0.0
  0
VERTEX
  5
2D1
  8
LAYER0000
 10
-375.6612141315981
 20
-191.7142273542815
 30
0.0
 42
-0.4152457519355418
  0
VERTEX
  5
2D2
  8
LAYER0000
 10
-376.6647369534051
 20
-192.7142211491264
 30
0.0
 42
-0.4390635033002168
  0
SEQEND
  5
2FE
  8
LAYER0000
  0
POLYLINE
  5
95
  8
LAYER0000
 66
     1
 10
0.0
 20
0.0
 30
0.0
 70
     1
  0
VERTEX
  5
2D3
  8
LAYER0000
 10
-520.4333885786766
 20
-183.7444914815695
 30
0.0
  0
VERTEX
  5
2D4
  8
LAYER0000
 10
-520.4333885786766
 20
-191.7149932641606
 30
0.0
 42
0.4027493722449745
  0
VERTEX
  5
2D5
  8
LAYER0000
 10
-519.4726776854011
 20
-192.7142211491264
 30
0.0
  0
VERTEX
  5
2D6
  8
LAYER0000
 10
-519.4333885786766
 20
-192.7142211491264
 30
0.0
 42
0.4142135623730923
  0
VERTEX
  5
2D7
  8
LAYER0000
 10
-518.4333885786766
 20
-191.7142211491264
 30
0.0
  0
VERTEX
  5
2D8
  8
LAYER0000
 10
-518.4333885786766
 20
-183.7444852764145
 30
0.0
 42
0.4131821256984353
  0
VERTEX
  5
2D9
  8
LAYER0000
 10
-519.4298657571277
 20
-182.7444914815695
 30
0.0
  0
VERTEX
  5
2DA
  8
LAYER0000
 10
-519.4333885786766
 20
-182.7444914815695
 30
0.0
 42
0.4142135623730923
  0
SEQEND
  5
2FF
  8
LAYER0000
  0
ENDSEC
  0
EOF
